# xmcd
#
# Track frame offsets:
#	150
#	16422
#	28512
#	43697
#	61932
#	80052
#	100402
#	118490
#	136407
#	152065
#	165467
#
# Disc length: 2535 seconds
#
# Revision: 0
# Processed by: cddbd v1.4PL0 Copyright (c) Steve Scherf et al.
# Submitted via: OrangeCD 4.1
#
DISCID=9009e50b
DTITLE=J. T. Lauritsen and The Buckshot Hunters - Make a Better World
DYEAR=1900
DGENRE=
TTITLE0=Me and my babe
TTITLE1=Labor of love
TTITLE2=Red hot
TTITLE3=It Only Hurts me when I cry
TTITLE4=Just for me and you
TTITLE5=I guess I'm tired
TTITLE6=I hope she know
TTITLE7=Get your dirty hands off my babe
TTITLE8=Make a better world
TTITLE9=I want let you in
TTITLE10=Buenas noches from a lonely room
EXTD=
EXTT0=
EXTT1=
EXTT2=
EXTT3=
EXTT4=
EXTT5=
EXTT6=
EXTT7=
EXTT8=
EXTT9=
EXTT10=
PLAYORDER=
